<mxfile host="app.diagrams.net" agent="Mozilla/5.0 (Windows NT 10.0; Win64; x64) AppleWebKit/537.36 (KHTML, like Gecko) Chrome/137.0.0.0 Safari/537.36" version="27.2.0">
  <diagram name="Page-1" id="FL8w64jzuJehWZaD2z6L">
    <mxGraphModel dx="1245" dy="697" grid="1" gridSize="10" guides="1" tooltips="1" connect="1" arrows="1" fold="1" page="1" pageScale="1" pageWidth="850" pageHeight="1100" math="0" shadow="0">
      <root>
        <mxCell id="0" />
        <mxCell id="1" parent="0" />
        <mxCell id="lWz0Dz89RBl9yW4Ur1Im-10" style="edgeStyle=orthogonalEdgeStyle;rounded=0;orthogonalLoop=1;jettySize=auto;html=1;exitX=1;exitY=0.5;exitDx=0;exitDy=0;entryX=0;entryY=0.5;entryDx=0;entryDy=0;" edge="1" parent="1" source="lWz0Dz89RBl9yW4Ur1Im-1" target="lWz0Dz89RBl9yW4Ur1Im-3">
          <mxGeometry relative="1" as="geometry" />
        </mxCell>
        <mxCell id="lWz0Dz89RBl9yW4Ur1Im-35" style="edgeStyle=orthogonalEdgeStyle;rounded=0;orthogonalLoop=1;jettySize=auto;html=1;exitX=0;exitY=0;exitDx=0;exitDy=0;entryX=1;entryY=0.5;entryDx=0;entryDy=0;" edge="1" parent="1" source="lWz0Dz89RBl9yW4Ur1Im-1" target="lWz0Dz89RBl9yW4Ur1Im-31">
          <mxGeometry relative="1" as="geometry" />
        </mxCell>
        <mxCell id="lWz0Dz89RBl9yW4Ur1Im-36" style="edgeStyle=orthogonalEdgeStyle;rounded=0;orthogonalLoop=1;jettySize=auto;html=1;exitX=0;exitY=0.25;exitDx=0;exitDy=0;entryX=1;entryY=0.5;entryDx=0;entryDy=0;" edge="1" parent="1" source="lWz0Dz89RBl9yW4Ur1Im-1" target="lWz0Dz89RBl9yW4Ur1Im-32">
          <mxGeometry relative="1" as="geometry" />
        </mxCell>
        <mxCell id="lWz0Dz89RBl9yW4Ur1Im-37" style="edgeStyle=orthogonalEdgeStyle;rounded=0;orthogonalLoop=1;jettySize=auto;html=1;exitX=0;exitY=0.5;exitDx=0;exitDy=0;entryX=1;entryY=0.5;entryDx=0;entryDy=0;" edge="1" parent="1" source="lWz0Dz89RBl9yW4Ur1Im-1" target="lWz0Dz89RBl9yW4Ur1Im-33">
          <mxGeometry relative="1" as="geometry" />
        </mxCell>
        <mxCell id="lWz0Dz89RBl9yW4Ur1Im-38" style="edgeStyle=orthogonalEdgeStyle;rounded=0;orthogonalLoop=1;jettySize=auto;html=1;exitX=0;exitY=0.75;exitDx=0;exitDy=0;entryX=1;entryY=0.5;entryDx=0;entryDy=0;" edge="1" parent="1" source="lWz0Dz89RBl9yW4Ur1Im-1" target="lWz0Dz89RBl9yW4Ur1Im-34">
          <mxGeometry relative="1" as="geometry" />
        </mxCell>
        <mxCell id="lWz0Dz89RBl9yW4Ur1Im-80" style="edgeStyle=orthogonalEdgeStyle;rounded=0;orthogonalLoop=1;jettySize=auto;html=1;exitX=0.25;exitY=0;exitDx=0;exitDy=0;entryX=0.5;entryY=1;entryDx=0;entryDy=0;" edge="1" parent="1" source="lWz0Dz89RBl9yW4Ur1Im-1" target="lWz0Dz89RBl9yW4Ur1Im-79">
          <mxGeometry relative="1" as="geometry" />
        </mxCell>
        <mxCell id="lWz0Dz89RBl9yW4Ur1Im-1" value="DJELATNIK" style="rounded=0;whiteSpace=wrap;html=1;" vertex="1" parent="1">
          <mxGeometry x="120" y="80" width="120" height="60" as="geometry" />
        </mxCell>
        <mxCell id="lWz0Dz89RBl9yW4Ur1Im-2" value="RADI" style="rhombus;whiteSpace=wrap;html=1;" vertex="1" parent="1">
          <mxGeometry x="320" y="70" width="80" height="80" as="geometry" />
        </mxCell>
        <mxCell id="lWz0Dz89RBl9yW4Ur1Im-11" style="edgeStyle=orthogonalEdgeStyle;rounded=0;orthogonalLoop=1;jettySize=auto;html=1;exitX=1;exitY=0.5;exitDx=0;exitDy=0;entryX=0.5;entryY=0;entryDx=0;entryDy=0;" edge="1" parent="1" source="lWz0Dz89RBl9yW4Ur1Im-3" target="lWz0Dz89RBl9yW4Ur1Im-5">
          <mxGeometry relative="1" as="geometry" />
        </mxCell>
        <mxCell id="lWz0Dz89RBl9yW4Ur1Im-3" value="VOĆARSTVO" style="rounded=0;whiteSpace=wrap;html=1;" vertex="1" parent="1">
          <mxGeometry x="450" y="80" width="120" height="60" as="geometry" />
        </mxCell>
        <mxCell id="lWz0Dz89RBl9yW4Ur1Im-4" value="IMA" style="rhombus;whiteSpace=wrap;html=1;" vertex="1" parent="1">
          <mxGeometry x="610" y="70" width="80" height="80" as="geometry" />
        </mxCell>
        <mxCell id="lWz0Dz89RBl9yW4Ur1Im-17" style="edgeStyle=orthogonalEdgeStyle;rounded=0;orthogonalLoop=1;jettySize=auto;html=1;exitX=0.5;exitY=1;exitDx=0;exitDy=0;entryX=0.5;entryY=0;entryDx=0;entryDy=0;" edge="1" parent="1" source="lWz0Dz89RBl9yW4Ur1Im-5" target="lWz0Dz89RBl9yW4Ur1Im-7">
          <mxGeometry relative="1" as="geometry" />
        </mxCell>
        <mxCell id="lWz0Dz89RBl9yW4Ur1Im-23" style="edgeStyle=orthogonalEdgeStyle;rounded=0;orthogonalLoop=1;jettySize=auto;html=1;exitX=0;exitY=0.5;exitDx=0;exitDy=0;entryX=1;entryY=0.5;entryDx=0;entryDy=0;" edge="1" parent="1" source="lWz0Dz89RBl9yW4Ur1Im-5" target="lWz0Dz89RBl9yW4Ur1Im-21">
          <mxGeometry relative="1" as="geometry" />
        </mxCell>
        <mxCell id="lWz0Dz89RBl9yW4Ur1Im-59" style="edgeStyle=orthogonalEdgeStyle;rounded=0;orthogonalLoop=1;jettySize=auto;html=1;exitX=1;exitY=0.25;exitDx=0;exitDy=0;entryX=0;entryY=0.5;entryDx=0;entryDy=0;" edge="1" parent="1" source="lWz0Dz89RBl9yW4Ur1Im-5" target="lWz0Dz89RBl9yW4Ur1Im-56">
          <mxGeometry relative="1" as="geometry" />
        </mxCell>
        <mxCell id="lWz0Dz89RBl9yW4Ur1Im-61" style="edgeStyle=orthogonalEdgeStyle;rounded=0;orthogonalLoop=1;jettySize=auto;html=1;exitX=1;exitY=0.75;exitDx=0;exitDy=0;entryX=0;entryY=0.5;entryDx=0;entryDy=0;" edge="1" parent="1" source="lWz0Dz89RBl9yW4Ur1Im-5" target="lWz0Dz89RBl9yW4Ur1Im-58">
          <mxGeometry relative="1" as="geometry" />
        </mxCell>
        <mxCell id="lWz0Dz89RBl9yW4Ur1Im-85" style="edgeStyle=orthogonalEdgeStyle;rounded=0;orthogonalLoop=1;jettySize=auto;html=1;exitX=1;exitY=1;exitDx=0;exitDy=0;entryX=0;entryY=0.5;entryDx=0;entryDy=0;" edge="1" parent="1" source="lWz0Dz89RBl9yW4Ur1Im-5" target="lWz0Dz89RBl9yW4Ur1Im-84">
          <mxGeometry relative="1" as="geometry" />
        </mxCell>
        <mxCell id="lWz0Dz89RBl9yW4Ur1Im-5" value="NARUDŽBA" style="rounded=0;whiteSpace=wrap;html=1;" vertex="1" parent="1">
          <mxGeometry x="600" y="210" width="120" height="60" as="geometry" />
        </mxCell>
        <mxCell id="lWz0Dz89RBl9yW4Ur1Im-18" style="edgeStyle=orthogonalEdgeStyle;rounded=0;orthogonalLoop=1;jettySize=auto;html=1;exitX=0.5;exitY=1;exitDx=0;exitDy=0;entryX=0.5;entryY=0;entryDx=0;entryDy=0;" edge="1" parent="1" source="lWz0Dz89RBl9yW4Ur1Im-8" target="lWz0Dz89RBl9yW4Ur1Im-9">
          <mxGeometry relative="1" as="geometry" />
        </mxCell>
        <mxCell id="lWz0Dz89RBl9yW4Ur1Im-75" style="edgeStyle=orthogonalEdgeStyle;rounded=0;orthogonalLoop=1;jettySize=auto;html=1;exitX=1;exitY=0.25;exitDx=0;exitDy=0;entryX=0;entryY=0.5;entryDx=0;entryDy=0;" edge="1" parent="1" source="lWz0Dz89RBl9yW4Ur1Im-7" target="lWz0Dz89RBl9yW4Ur1Im-71">
          <mxGeometry relative="1" as="geometry" />
        </mxCell>
        <mxCell id="lWz0Dz89RBl9yW4Ur1Im-76" style="edgeStyle=orthogonalEdgeStyle;rounded=0;orthogonalLoop=1;jettySize=auto;html=1;exitX=1;exitY=0.5;exitDx=0;exitDy=0;entryX=0;entryY=0.5;entryDx=0;entryDy=0;" edge="1" parent="1" source="lWz0Dz89RBl9yW4Ur1Im-7" target="lWz0Dz89RBl9yW4Ur1Im-72">
          <mxGeometry relative="1" as="geometry" />
        </mxCell>
        <mxCell id="lWz0Dz89RBl9yW4Ur1Im-77" style="edgeStyle=orthogonalEdgeStyle;rounded=0;orthogonalLoop=1;jettySize=auto;html=1;exitX=1;exitY=0.75;exitDx=0;exitDy=0;entryX=0;entryY=0.5;entryDx=0;entryDy=0;" edge="1" parent="1" source="lWz0Dz89RBl9yW4Ur1Im-7" target="lWz0Dz89RBl9yW4Ur1Im-73">
          <mxGeometry relative="1" as="geometry" />
        </mxCell>
        <mxCell id="lWz0Dz89RBl9yW4Ur1Im-78" style="edgeStyle=orthogonalEdgeStyle;rounded=0;orthogonalLoop=1;jettySize=auto;html=1;exitX=1;exitY=1;exitDx=0;exitDy=0;entryX=0;entryY=0.5;entryDx=0;entryDy=0;" edge="1" parent="1" source="lWz0Dz89RBl9yW4Ur1Im-7" target="lWz0Dz89RBl9yW4Ur1Im-74">
          <mxGeometry relative="1" as="geometry" />
        </mxCell>
        <mxCell id="lWz0Dz89RBl9yW4Ur1Im-7" value="VOĆE" style="rounded=0;whiteSpace=wrap;html=1;" vertex="1" parent="1">
          <mxGeometry x="600" y="450" width="120" height="60" as="geometry" />
        </mxCell>
        <mxCell id="lWz0Dz89RBl9yW4Ur1Im-43" style="edgeStyle=orthogonalEdgeStyle;rounded=0;orthogonalLoop=1;jettySize=auto;html=1;exitX=0;exitY=0;exitDx=0;exitDy=0;entryX=1;entryY=0.5;entryDx=0;entryDy=0;" edge="1" parent="1" source="lWz0Dz89RBl9yW4Ur1Im-9" target="lWz0Dz89RBl9yW4Ur1Im-39">
          <mxGeometry relative="1" as="geometry" />
        </mxCell>
        <mxCell id="lWz0Dz89RBl9yW4Ur1Im-44" style="edgeStyle=orthogonalEdgeStyle;rounded=0;orthogonalLoop=1;jettySize=auto;html=1;exitX=0;exitY=0.25;exitDx=0;exitDy=0;entryX=1;entryY=0.5;entryDx=0;entryDy=0;" edge="1" parent="1" source="lWz0Dz89RBl9yW4Ur1Im-9" target="lWz0Dz89RBl9yW4Ur1Im-40">
          <mxGeometry relative="1" as="geometry" />
        </mxCell>
        <mxCell id="lWz0Dz89RBl9yW4Ur1Im-45" style="edgeStyle=orthogonalEdgeStyle;rounded=0;orthogonalLoop=1;jettySize=auto;html=1;exitX=0;exitY=0.5;exitDx=0;exitDy=0;entryX=1;entryY=0.5;entryDx=0;entryDy=0;" edge="1" parent="1" source="lWz0Dz89RBl9yW4Ur1Im-9" target="lWz0Dz89RBl9yW4Ur1Im-41">
          <mxGeometry relative="1" as="geometry" />
        </mxCell>
        <mxCell id="lWz0Dz89RBl9yW4Ur1Im-46" style="edgeStyle=orthogonalEdgeStyle;rounded=0;orthogonalLoop=1;jettySize=auto;html=1;exitX=0;exitY=0.75;exitDx=0;exitDy=0;entryX=1;entryY=0.5;entryDx=0;entryDy=0;" edge="1" parent="1" source="lWz0Dz89RBl9yW4Ur1Im-9" target="lWz0Dz89RBl9yW4Ur1Im-42">
          <mxGeometry relative="1" as="geometry" />
        </mxCell>
        <mxCell id="lWz0Dz89RBl9yW4Ur1Im-89" style="edgeStyle=orthogonalEdgeStyle;rounded=0;orthogonalLoop=1;jettySize=auto;html=1;exitX=0;exitY=1;exitDx=0;exitDy=0;entryX=1;entryY=0.5;entryDx=0;entryDy=0;" edge="1" parent="1" source="lWz0Dz89RBl9yW4Ur1Im-9" target="lWz0Dz89RBl9yW4Ur1Im-88">
          <mxGeometry relative="1" as="geometry" />
        </mxCell>
        <mxCell id="lWz0Dz89RBl9yW4Ur1Im-9" value="DOBAVLJAČ" style="rounded=0;whiteSpace=wrap;html=1;" vertex="1" parent="1">
          <mxGeometry x="600" y="700" width="120" height="60" as="geometry" />
        </mxCell>
        <mxCell id="lWz0Dz89RBl9yW4Ur1Im-6" value="SADRŽI" style="rhombus;whiteSpace=wrap;html=1;" vertex="1" parent="1">
          <mxGeometry x="620" y="310" width="80" height="80" as="geometry" />
        </mxCell>
        <mxCell id="lWz0Dz89RBl9yW4Ur1Im-19" value="" style="edgeStyle=orthogonalEdgeStyle;rounded=0;orthogonalLoop=1;jettySize=auto;html=1;exitX=0.5;exitY=1;exitDx=0;exitDy=0;entryX=0.5;entryY=0;entryDx=0;entryDy=0;" edge="1" parent="1" source="lWz0Dz89RBl9yW4Ur1Im-7" target="lWz0Dz89RBl9yW4Ur1Im-8">
          <mxGeometry relative="1" as="geometry">
            <mxPoint x="660" y="510" as="sourcePoint" />
            <mxPoint x="660" y="700" as="targetPoint" />
          </mxGeometry>
        </mxCell>
        <mxCell id="lWz0Dz89RBl9yW4Ur1Im-8" value="NABAVLJENO OD" style="rhombus;whiteSpace=wrap;html=1;" vertex="1" parent="1">
          <mxGeometry x="620" y="550" width="80" height="80" as="geometry" />
        </mxCell>
        <mxCell id="lWz0Dz89RBl9yW4Ur1Im-52" style="edgeStyle=orthogonalEdgeStyle;rounded=0;orthogonalLoop=1;jettySize=auto;html=1;exitX=0;exitY=0;exitDx=0;exitDy=0;entryX=1;entryY=0.5;entryDx=0;entryDy=0;" edge="1" parent="1" source="lWz0Dz89RBl9yW4Ur1Im-21" target="lWz0Dz89RBl9yW4Ur1Im-47">
          <mxGeometry relative="1" as="geometry" />
        </mxCell>
        <mxCell id="lWz0Dz89RBl9yW4Ur1Im-53" style="edgeStyle=orthogonalEdgeStyle;rounded=0;orthogonalLoop=1;jettySize=auto;html=1;exitX=0;exitY=0.25;exitDx=0;exitDy=0;entryX=1;entryY=0.5;entryDx=0;entryDy=0;" edge="1" parent="1" source="lWz0Dz89RBl9yW4Ur1Im-21" target="lWz0Dz89RBl9yW4Ur1Im-48">
          <mxGeometry relative="1" as="geometry" />
        </mxCell>
        <mxCell id="lWz0Dz89RBl9yW4Ur1Im-54" style="edgeStyle=orthogonalEdgeStyle;rounded=0;orthogonalLoop=1;jettySize=auto;html=1;exitX=0;exitY=0.5;exitDx=0;exitDy=0;entryX=1;entryY=0.5;entryDx=0;entryDy=0;" edge="1" parent="1" source="lWz0Dz89RBl9yW4Ur1Im-21" target="lWz0Dz89RBl9yW4Ur1Im-49">
          <mxGeometry relative="1" as="geometry" />
        </mxCell>
        <mxCell id="lWz0Dz89RBl9yW4Ur1Im-55" style="edgeStyle=orthogonalEdgeStyle;rounded=0;orthogonalLoop=1;jettySize=auto;html=1;exitX=0;exitY=1;exitDx=0;exitDy=0;entryX=1;entryY=0;entryDx=0;entryDy=0;" edge="1" parent="1" source="lWz0Dz89RBl9yW4Ur1Im-21" target="lWz0Dz89RBl9yW4Ur1Im-50">
          <mxGeometry relative="1" as="geometry" />
        </mxCell>
        <mxCell id="lWz0Dz89RBl9yW4Ur1Im-83" style="edgeStyle=orthogonalEdgeStyle;rounded=0;orthogonalLoop=1;jettySize=auto;html=1;exitX=0.25;exitY=1;exitDx=0;exitDy=0;entryX=0.5;entryY=0;entryDx=0;entryDy=0;" edge="1" parent="1" source="lWz0Dz89RBl9yW4Ur1Im-21" target="lWz0Dz89RBl9yW4Ur1Im-81">
          <mxGeometry relative="1" as="geometry" />
        </mxCell>
        <mxCell id="lWz0Dz89RBl9yW4Ur1Im-21" value="KUPAC" style="rounded=0;whiteSpace=wrap;html=1;" vertex="1" parent="1">
          <mxGeometry x="120" y="210" width="120" height="60" as="geometry" />
        </mxCell>
        <mxCell id="lWz0Dz89RBl9yW4Ur1Im-24" style="edgeStyle=orthogonalEdgeStyle;rounded=0;orthogonalLoop=1;jettySize=auto;html=1;exitX=1;exitY=0.5;exitDx=0;exitDy=0;entryX=0;entryY=0.75;entryDx=0;entryDy=0;" edge="1" parent="1" source="lWz0Dz89RBl9yW4Ur1Im-22" target="lWz0Dz89RBl9yW4Ur1Im-5">
          <mxGeometry relative="1" as="geometry" />
        </mxCell>
        <mxCell id="lWz0Dz89RBl9yW4Ur1Im-67" style="edgeStyle=orthogonalEdgeStyle;rounded=0;orthogonalLoop=1;jettySize=auto;html=1;exitX=0;exitY=1;exitDx=0;exitDy=0;entryX=1;entryY=0;entryDx=0;entryDy=0;" edge="1" parent="1" source="lWz0Dz89RBl9yW4Ur1Im-22" target="lWz0Dz89RBl9yW4Ur1Im-62">
          <mxGeometry relative="1" as="geometry" />
        </mxCell>
        <mxCell id="lWz0Dz89RBl9yW4Ur1Im-69" style="edgeStyle=orthogonalEdgeStyle;rounded=0;orthogonalLoop=1;jettySize=auto;html=1;exitX=0.5;exitY=1;exitDx=0;exitDy=0;entryX=0.5;entryY=0;entryDx=0;entryDy=0;" edge="1" parent="1" source="lWz0Dz89RBl9yW4Ur1Im-22" target="lWz0Dz89RBl9yW4Ur1Im-65">
          <mxGeometry relative="1" as="geometry" />
        </mxCell>
        <mxCell id="lWz0Dz89RBl9yW4Ur1Im-87" style="edgeStyle=orthogonalEdgeStyle;rounded=0;orthogonalLoop=1;jettySize=auto;html=1;exitX=1;exitY=1;exitDx=0;exitDy=0;entryX=0.5;entryY=0;entryDx=0;entryDy=0;" edge="1" parent="1" source="lWz0Dz89RBl9yW4Ur1Im-22" target="lWz0Dz89RBl9yW4Ur1Im-86">
          <mxGeometry relative="1" as="geometry" />
        </mxCell>
        <mxCell id="lWz0Dz89RBl9yW4Ur1Im-22" value="RAČUN" style="rounded=0;whiteSpace=wrap;html=1;" vertex="1" parent="1">
          <mxGeometry x="120" y="350" width="120" height="60" as="geometry" />
        </mxCell>
        <mxCell id="lWz0Dz89RBl9yW4Ur1Im-25" value="NAPRAVLJENA ZA" style="rhombus;whiteSpace=wrap;html=1;" vertex="1" parent="1">
          <mxGeometry x="330" y="200" width="80" height="80" as="geometry" />
        </mxCell>
        <mxCell id="lWz0Dz89RBl9yW4Ur1Im-28" value="IZDAJE SE ZA" style="rhombus;whiteSpace=wrap;html=1;" vertex="1" parent="1">
          <mxGeometry x="310" y="340" width="80" height="80" as="geometry" />
        </mxCell>
        <mxCell id="lWz0Dz89RBl9yW4Ur1Im-31" value="ID" style="ellipse;whiteSpace=wrap;html=1;" vertex="1" parent="1">
          <mxGeometry x="20" y="10" width="60" height="30" as="geometry" />
        </mxCell>
        <mxCell id="lWz0Dz89RBl9yW4Ur1Im-32" value="IME&lt;span style=&quot;color: rgba(0, 0, 0, 0); font-family: monospace; font-size: 0px; text-align: start; text-wrap-mode: nowrap;&quot;&gt;%3CmxGraphModel%3E%3Croot%3E%3CmxCell%20id%3D%220%22%2F%3E%3CmxCell%20id%3D%221%22%20parent%3D%220%22%2F%3E%3CmxCell%20id%3D%222%22%20value%3D%22ID%22%20style%3D%22ellipse%3BwhiteSpace%3Dwrap%3Bhtml%3D1%3B%22%20vertex%3D%221%22%20parent%3D%221%22%3E%3CmxGeometry%20x%3D%2220%22%20y%3D%2210%22%20width%3D%2260%22%20height%3D%2230%22%20as%3D%22geometry%22%2F%3E%3C%2FmxCell%3E%3C%2Froot%3E%3C%2FmxGraphModel%3E&lt;/span&gt;" style="ellipse;whiteSpace=wrap;html=1;" vertex="1" parent="1">
          <mxGeometry x="20" y="50" width="60" height="30" as="geometry" />
        </mxCell>
        <mxCell id="lWz0Dz89RBl9yW4Ur1Im-33" value="PREZIME&lt;span style=&quot;color: rgba(0, 0, 0, 0); font-family: monospace; font-size: 0px; text-align: start; text-wrap-mode: nowrap;&quot;&gt;%3CmxGraphModel%3E%3Croot%3E%3CmxCell%20id%3D%220%22%2F%3E%3CmxCell%20id%3D%221%22%20parent%3D%220%22%2F%3E%3CmxCell%20id%3D%222%22%20value%3D%22ID%22%20style%3D%22ellipse%3BwhiteSpace%3Dwrap%3Bhtml%3D1%3B%22%20vertex%3D%221%22%20parent%3D%221%22%3E%3CmxGeometry%20x%3D%2220%22%20y%3D%2210%22%20width%3D%2260%22%20height%3D%2230%22%20as%3D%22geometry%22%2F%3E%3C%2FmxCell%3E%3C%2Froot%3E%3C%2FmxGraphModel%3E&lt;/span&gt;" style="ellipse;whiteSpace=wrap;html=1;" vertex="1" parent="1">
          <mxGeometry x="20" y="90" width="60" height="30" as="geometry" />
        </mxCell>
        <mxCell id="lWz0Dz89RBl9yW4Ur1Im-34" value="POZICIJA" style="ellipse;whiteSpace=wrap;html=1;" vertex="1" parent="1">
          <mxGeometry x="20" y="130" width="60" height="30" as="geometry" />
        </mxCell>
        <mxCell id="lWz0Dz89RBl9yW4Ur1Im-39" value="ID" style="ellipse;whiteSpace=wrap;html=1;" vertex="1" parent="1">
          <mxGeometry x="500" y="630" width="60" height="30" as="geometry" />
        </mxCell>
        <mxCell id="lWz0Dz89RBl9yW4Ur1Im-40" value="NAZIV" style="ellipse;whiteSpace=wrap;html=1;" vertex="1" parent="1">
          <mxGeometry x="500" y="670" width="60" height="30" as="geometry" />
        </mxCell>
        <mxCell id="lWz0Dz89RBl9yW4Ur1Im-41" value="ADRESA" style="ellipse;whiteSpace=wrap;html=1;" vertex="1" parent="1">
          <mxGeometry x="500" y="710" width="60" height="30" as="geometry" />
        </mxCell>
        <mxCell id="lWz0Dz89RBl9yW4Ur1Im-42" value="TELEFON" style="ellipse;whiteSpace=wrap;html=1;" vertex="1" parent="1">
          <mxGeometry x="500" y="750" width="60" height="30" as="geometry" />
        </mxCell>
        <mxCell id="lWz0Dz89RBl9yW4Ur1Im-47" value="ID" style="ellipse;whiteSpace=wrap;html=1;" vertex="1" parent="1">
          <mxGeometry x="20" y="190" width="60" height="30" as="geometry" />
        </mxCell>
        <mxCell id="lWz0Dz89RBl9yW4Ur1Im-48" value="NAZIV" style="ellipse;whiteSpace=wrap;html=1;" vertex="1" parent="1">
          <mxGeometry x="10" y="225" width="60" height="30" as="geometry" />
        </mxCell>
        <mxCell id="lWz0Dz89RBl9yW4Ur1Im-49" value="ADRESA" style="ellipse;whiteSpace=wrap;html=1;" vertex="1" parent="1">
          <mxGeometry y="260" width="60" height="30" as="geometry" />
        </mxCell>
        <mxCell id="lWz0Dz89RBl9yW4Ur1Im-50" value="TELEFON" style="ellipse;whiteSpace=wrap;html=1;" vertex="1" parent="1">
          <mxGeometry x="50" y="290" width="60" height="30" as="geometry" />
        </mxCell>
        <mxCell id="lWz0Dz89RBl9yW4Ur1Im-56" value="ID" style="ellipse;whiteSpace=wrap;html=1;" vertex="1" parent="1">
          <mxGeometry x="760" y="160" width="60" height="30" as="geometry" />
        </mxCell>
        <mxCell id="lWz0Dz89RBl9yW4Ur1Im-57" value="ID_RACUN" style="ellipse;whiteSpace=wrap;html=1;" vertex="1" parent="1">
          <mxGeometry x="760" y="200" width="60" height="30" as="geometry" />
        </mxCell>
        <mxCell id="lWz0Dz89RBl9yW4Ur1Im-58" value="DATUM" style="ellipse;whiteSpace=wrap;html=1;" vertex="1" parent="1">
          <mxGeometry x="760" y="240" width="60" height="30" as="geometry" />
        </mxCell>
        <mxCell id="lWz0Dz89RBl9yW4Ur1Im-60" style="edgeStyle=orthogonalEdgeStyle;rounded=0;orthogonalLoop=1;jettySize=auto;html=1;exitX=1;exitY=0.5;exitDx=0;exitDy=0;entryX=0.008;entryY=0.767;entryDx=0;entryDy=0;entryPerimeter=0;" edge="1" parent="1" source="lWz0Dz89RBl9yW4Ur1Im-5" target="lWz0Dz89RBl9yW4Ur1Im-57">
          <mxGeometry relative="1" as="geometry" />
        </mxCell>
        <mxCell id="lWz0Dz89RBl9yW4Ur1Im-62" value="ID" style="ellipse;whiteSpace=wrap;html=1;" vertex="1" parent="1">
          <mxGeometry x="30" y="430" width="60" height="30" as="geometry" />
        </mxCell>
        <mxCell id="lWz0Dz89RBl9yW4Ur1Im-64" value="ID_NARUDZBA" style="ellipse;whiteSpace=wrap;html=1;" vertex="1" parent="1">
          <mxGeometry x="60" y="460" width="110" height="40" as="geometry" />
        </mxCell>
        <mxCell id="lWz0Dz89RBl9yW4Ur1Im-65" value="ID_DJELATNIK" style="ellipse;whiteSpace=wrap;html=1;" vertex="1" parent="1">
          <mxGeometry x="125" y="500" width="110" height="40" as="geometry" />
        </mxCell>
        <mxCell id="lWz0Dz89RBl9yW4Ur1Im-66" value="DATUM_IZDAVANJA" style="ellipse;whiteSpace=wrap;html=1;" vertex="1" parent="1">
          <mxGeometry x="210" y="460" width="110" height="40" as="geometry" />
        </mxCell>
        <mxCell id="lWz0Dz89RBl9yW4Ur1Im-68" style="edgeStyle=orthogonalEdgeStyle;rounded=0;orthogonalLoop=1;jettySize=auto;html=1;exitX=0.25;exitY=1;exitDx=0;exitDy=0;entryX=0.736;entryY=-0.012;entryDx=0;entryDy=0;entryPerimeter=0;" edge="1" parent="1" source="lWz0Dz89RBl9yW4Ur1Im-22" target="lWz0Dz89RBl9yW4Ur1Im-64">
          <mxGeometry relative="1" as="geometry" />
        </mxCell>
        <mxCell id="lWz0Dz89RBl9yW4Ur1Im-70" style="edgeStyle=orthogonalEdgeStyle;rounded=0;orthogonalLoop=1;jettySize=auto;html=1;exitX=0.75;exitY=1;exitDx=0;exitDy=0;entryX=0.082;entryY=0.3;entryDx=0;entryDy=0;entryPerimeter=0;" edge="1" parent="1" source="lWz0Dz89RBl9yW4Ur1Im-22" target="lWz0Dz89RBl9yW4Ur1Im-66">
          <mxGeometry relative="1" as="geometry" />
        </mxCell>
        <mxCell id="lWz0Dz89RBl9yW4Ur1Im-71" value="ID" style="ellipse;whiteSpace=wrap;html=1;" vertex="1" parent="1">
          <mxGeometry x="760" y="430" width="60" height="30" as="geometry" />
        </mxCell>
        <mxCell id="lWz0Dz89RBl9yW4Ur1Im-72" value="NAZIV" style="ellipse;whiteSpace=wrap;html=1;" vertex="1" parent="1">
          <mxGeometry x="760" y="470" width="60" height="30" as="geometry" />
        </mxCell>
        <mxCell id="lWz0Dz89RBl9yW4Ur1Im-73" value="SORTA" style="ellipse;whiteSpace=wrap;html=1;" vertex="1" parent="1">
          <mxGeometry x="760" y="510" width="60" height="30" as="geometry" />
        </mxCell>
        <mxCell id="lWz0Dz89RBl9yW4Ur1Im-74" value="SEZONA" style="ellipse;whiteSpace=wrap;html=1;" vertex="1" parent="1">
          <mxGeometry x="760" y="550" width="60" height="30" as="geometry" />
        </mxCell>
        <mxCell id="lWz0Dz89RBl9yW4Ur1Im-79" value="KONTAKT" style="ellipse;whiteSpace=wrap;html=1;" vertex="1" parent="1">
          <mxGeometry x="125" y="10" width="60" height="30" as="geometry" />
        </mxCell>
        <mxCell id="lWz0Dz89RBl9yW4Ur1Im-81" value="EMAIL" style="ellipse;whiteSpace=wrap;html=1;" vertex="1" parent="1">
          <mxGeometry x="125" y="290" width="60" height="30" as="geometry" />
        </mxCell>
        <mxCell id="lWz0Dz89RBl9yW4Ur1Im-84" value="STATUS" style="ellipse;whiteSpace=wrap;html=1;" vertex="1" parent="1">
          <mxGeometry x="760" y="280" width="60" height="30" as="geometry" />
        </mxCell>
        <mxCell id="lWz0Dz89RBl9yW4Ur1Im-86" value="UKUPNO" style="ellipse;whiteSpace=wrap;html=1;" vertex="1" parent="1">
          <mxGeometry x="240" y="420" width="60" height="30" as="geometry" />
        </mxCell>
        <mxCell id="lWz0Dz89RBl9yW4Ur1Im-88" value="EMAIL" style="ellipse;whiteSpace=wrap;html=1;" vertex="1" parent="1">
          <mxGeometry x="500" y="790" width="60" height="30" as="geometry" />
        </mxCell>
      </root>
    </mxGraphModel>
  </diagram>
</mxfile>
